<svg width="28" height="12" viewBox="0 0 28 12" fill="none" xmlns="http://www.w3.org/2000/svg">
<path d="M4.98557 3.4045L2.22439 11.2012L0.121094 11.2012L4.15159 0.331909L5.9027 0.331909L9.8745 11.2012L7.69783 11.2012L4.98557 3.4045Z" fill="#2A2A2A"/>
<path d="M12.0217 7.01287L12.0217 11.2018L10.1973 11.2018L10.1973 2.99034L11.9068 2.99034L11.9068 3.93772C12.4473 3.21822 13.0758 2.86743 13.9221 2.86743L13.9221 4.65722C12.3593 4.78012 12.0217 5.48426 12.0217 7.01287Z" fill="#2A2A2A"/>
<path d="M15.7589 4.68731L14.5605 4.68731L14.5605 2.9897L15.7589 2.9897L15.7589 0.331909L17.5834 0.331909L17.5834 2.99226L18.7965 2.99226L18.7965 4.68987L17.5834 4.68987L17.5834 11.2038L15.7589 11.2038L15.7589 4.68731V4.68731Z" fill="#2A2A2A"/>
<path d="M23.7902 2.79254C24.8125 2.79254 25.7614 3.15869 26.4926 3.87819C27.3535 4.70267 27.8207 5.86514 27.8207 7.07369C27.8207 8.38722 27.2948 9.59578 26.3459 10.4535C25.6587 11.0809 24.7684 11.4163 23.7755 11.4163C22.8559 11.4163 22.0659 11.1423 21.3371 10.5304L21.3371 11.2038L19.542 11.2038L19.542 0.331909L21.3371 0.331909L21.3371 3.65031C22.0366 3.03835 22.8119 2.79254 23.7902 2.79254ZM23.57 9.51896C24.9567 9.51896 25.935 8.46404 25.935 7.10442C25.935 5.79088 24.9274 4.67451 23.6581 4.67451C22.3863 4.67451 21.4081 5.72943 21.4081 7.13514C21.4081 8.49477 22.401 9.51896 23.57 9.51896Z" fill="#2A2A2A"/>
</svg>
