<svg width="19" height="16" viewBox="0 0 19 16" fill="none" xmlns="http://www.w3.org/2000/svg">
<path d="M9.50144 3.36842C11.8256 3.36842 13.712 5.25474 13.712 7.57895C13.712 8.12632 13.6025 8.64 13.4088 9.12L15.8678 11.5789C17.1393 10.5179 18.1414 9.14526 18.7562 7.57895C17.2993 3.88211 13.7035 1.26316 9.49302 1.26316C8.31407 1.26316 7.18565 1.47368 6.14144 1.85263L7.96039 3.67158C8.44039 3.47789 8.95407 3.36842 9.50144 3.36842ZM2.08039 2.06947L3.00039 2.98947L3.38775 3.37684C1.98986 4.46316 0.895123 5.91158 0.238281 7.57895C1.69512 11.2758 5.29091 13.8947 9.50144 13.8947C10.8067 13.8947 12.053 13.6421 13.1899 13.1874L13.5435 13.5411L15.0109 15L16.0804 13.9305L3.14986 1L2.08039 2.06947ZM5.73723 5.72632L7.04249 7.03158C7.00039 7.20842 6.97512 7.39368 6.97512 7.57895C6.97512 8.97684 8.10354 10.1053 9.50144 10.1053C9.6867 10.1053 9.87197 10.08 10.0488 10.0379L11.3541 11.3432C10.7899 11.6211 10.1667 11.7895 9.50144 11.7895C7.17723 11.7895 5.29091 9.90316 5.29091 7.57895C5.29091 6.91368 5.45933 6.29053 5.73723 5.72632ZM9.3667 5.06947L12.0193 7.72211L12.0362 7.58737C12.0362 6.18947 10.9078 5.06105 9.50986 5.06105L9.3667 5.06947Z" fill="#A6A6A6"/>
<path d="M16.1016 15L2.10156 1" stroke="#A6A6A6" stroke-width="1.53" stroke-linecap="round" stroke-linejoin="round"/>
</svg>
