<svg width="22" height="24" viewBox="0 0 22 24" fill="none" xmlns="http://www.w3.org/2000/svg">
<path d="M7 6.73926H15" stroke="white" stroke-width="2" stroke-linecap="round" stroke-linejoin="round"/>
<path d="M7 10.7393H15" stroke="white" stroke-width="2" stroke-linecap="round" stroke-linejoin="round"/>
<path d="M7 14.7393H15" stroke="white" stroke-width="2" stroke-linecap="round" stroke-linejoin="round"/>
<path d="M20.7071 1.28016C20.5196 1.10078 20.2652 1 20 1H2C1.73478 1 1.48043 1.10078 1.29289 1.28016C1.10536 1.45954 1 1.70284 1 1.95652V22.0435C1 22.2972 1.10536 22.5405 1.29289 22.7198C1.48043 22.8992 1.73478 23 2 23H20C20.2652 23 20.5196 22.8992 20.7071 22.7198C20.8946 22.5405 21 22.2972 21 22.0435V1.95652C21 1.70284 20.8946 1.45954 20.7071 1.28016Z" stroke="white" stroke-width="2" stroke-linecap="round" stroke-linejoin="round"/>
</svg>
