<svg width="26" height="26" viewBox="0 0 26 26" fill="none" xmlns="http://www.w3.org/2000/svg">
<path d="M16.2727 23.9404V17.5827C16.2727 17.3016 16.1578 17.0321 15.9532 16.8334C15.7486 16.6347 15.4711 16.5231 15.1818 16.5231H10.8182C10.5289 16.5231 10.2514 16.6347 10.0468 16.8334C9.84221 17.0321 9.72727 17.3016 9.72727 17.5827V23.9404C9.72727 24.2214 9.61234 24.4909 9.40775 24.6896C9.20317 24.8884 8.92569 25 8.63636 25H2.09091C1.80158 25 1.52411 24.8884 1.31952 24.6896C1.11493 24.4909 1 24.2214 1 23.9404V11.6886C1.00244 11.5419 1.03507 11.3972 1.09596 11.263C1.15685 11.1288 1.24477 11.0078 1.35455 10.9071L12.2636 1.27781C12.4647 1.09911 12.7274 1 13 1C13.2726 1 13.5353 1.09911 13.7364 1.27781L24.6455 10.9071C24.7552 11.0078 24.8432 11.1288 24.904 11.263C24.9649 11.3972 24.9976 11.5419 25 11.6886V23.9404C25 24.2214 24.8851 24.4909 24.6805 24.6896C24.4759 24.8884 24.1984 25 23.9091 25H17.3636C17.0743 25 16.7968 24.8884 16.5922 24.6896C16.3877 24.4909 16.2727 24.2214 16.2727 23.9404Z" stroke="white" stroke-width="2" stroke-linecap="round" stroke-linejoin="round"/>
</svg>
