<svg width="16" height="16" viewBox="0 0 16 16" fill="none" xmlns="http://www.w3.org/2000/svg">
<path d="M15.82 15.8199C15.7047 15.9352 15.5483 16 15.3853 16C15.2222 16 15.0658 15.9352 14.9506 15.8199L11.6293 12.4988C10.2324 13.6715 8.43662 14.2598 6.61653 14.1408C4.79644 14.0219 3.09252 13.2049 1.86012 11.8603C0.627709 10.5157 -0.0380476 8.74728 0.00168108 6.92379C0.0414098 5.10029 0.783557 3.36252 2.07336 2.07287C3.36316 0.783215 5.10103 0.0412375 6.92458 0.00166769C8.74812 -0.0379021 10.5166 0.62799 11.8611 1.86048C13.2056 3.09297 14.0224 4.79691 14.1412 6.61697C14.26 8.43702 13.6716 10.2327 12.4987 11.6295L15.82 14.9506C15.9352 15.0659 16 15.2223 16 15.3853C16 15.5483 15.9352 15.7047 15.82 15.8199ZM7.08698 12.9264C8.24199 12.9264 9.37107 12.5839 10.3314 11.9422C11.2918 11.3006 12.0403 10.3885 12.4823 9.32146C12.9243 8.25439 13.0399 7.08022 12.8146 5.94743C12.5893 4.81464 12.0331 3.77411 11.2164 2.95741C10.3997 2.14072 9.3591 1.58454 8.22628 1.35921C7.09346 1.13389 5.91926 1.24953 4.85217 1.69153C3.78507 2.13352 2.87301 2.88201 2.23132 3.84234C1.58963 4.80267 1.24713 5.93172 1.24713 7.0867C1.24888 8.63495 1.86471 10.1193 2.95952 11.2141C4.05432 12.3088 5.53869 12.9246 7.08698 12.9264Z" fill="#303030"/>
</svg>
