<svg width="48" height="48" viewBox="0 0 48 48" fill="none" xmlns="http://www.w3.org/2000/svg">
<rect width="48" height="48" rx="10" fill="#FBF6F5"/>
<path d="M24 12C21.6266 12 19.3066 12.7038 17.3332 14.0224C15.3598 15.3409 13.8217 17.2151 12.9135 19.4078C12.0052 21.6005 11.7676 24.0133 12.2306 26.3411C12.6936 28.6688 13.8365 30.807 15.5147 32.4853C17.193 34.1635 19.3311 35.3064 21.6589 35.7694C23.9867 36.2324 26.3995 35.9948 28.5922 35.0865C30.7849 34.1783 32.6591 32.6402 33.9776 30.6668C35.2962 28.6934 36 26.3734 36 24C35.9963 20.8185 34.7309 17.7684 32.4812 15.5188C30.2316 13.2691 27.1815 12.0037 24 12ZM29.7151 21.8987L22.9453 28.3603C22.7732 28.524 22.5447 28.6154 22.3071 28.6154C22.0695 28.6154 21.841 28.524 21.6689 28.3603L18.2849 25.1295C18.1081 24.9602 18.0057 24.7275 18.0003 24.4828C17.9949 24.238 18.0868 24.0011 18.256 23.8241C18.4251 23.6471 18.6576 23.5445 18.9023 23.5387C19.1471 23.533 19.3841 23.6247 19.5613 23.7936L22.3071 26.4159L28.4387 20.5628C28.6159 20.3939 28.8529 20.3022 29.0977 20.308C29.3424 20.3137 29.5749 20.4163 29.744 20.5934C29.9132 20.7704 30.0051 21.0073 29.9997 21.252C29.9943 21.4968 29.8919 21.7294 29.7151 21.8987Z" fill="#FF3D21"/>
</svg>
