<svg width="48" height="48" viewBox="0 0 48 48" fill="none" xmlns="http://www.w3.org/2000/svg">
<rect width="48" height="48" rx="10" fill="#FBF6F5"/>
<path d="M32.9653 12H15.0158C14.549 12.0033 14.1024 12.1911 13.7735 12.5224C13.4446 12.8537 13.26 13.3015 13.26 13.7684V34.2442C13.26 34.7099 13.445 35.1565 13.7743 35.4858C14.1035 35.815 14.5501 36 15.0158 36H32.9653C33.4321 36 33.88 35.8154 34.2113 35.4865C34.5426 35.1576 34.7304 34.711 34.7337 34.2442V13.7684C34.7337 13.2994 34.5474 12.8496 34.2157 12.5179C33.8841 12.1863 33.4343 12 32.9653 12ZM29.959 29.3684H18.0221V26.8421H29.959V29.3684ZM29.959 24.5684H18.0221V22.0421H29.959V24.5684ZM29.959 19.7684H18.0221V17.2421H29.959V19.7684Z" fill="#FF3D21"/>
</svg>
