<svg width="21" height="24" viewBox="0 0 21 24" fill="none" xmlns="http://www.w3.org/2000/svg">
<path d="M15.6667 1V12L12 9.25L8.33337 12V1" stroke="white" stroke-width="2" stroke-linecap="round" stroke-linejoin="round"/>
<path d="M1.00002 22.0834C0.998508 21.7218 1.0686 21.3635 1.20627 21.0292C1.34393 20.6949 1.54644 20.3911 1.8021 20.1354C2.05776 19.8798 2.36152 19.6773 2.69585 19.5396C3.03018 19.4019 3.38846 19.3318 3.75002 19.3334H19.3334V1.00002H3.75002C3.38846 0.998508 3.03018 1.0686 2.69585 1.20627C2.36152 1.34393 2.05776 1.54644 1.8021 1.8021C1.54644 2.05776 1.34393 2.36152 1.20627 2.69585C1.0686 3.03018 0.998508 3.38846 1.00002 3.75002V22.0834Z" stroke="white" stroke-width="2" stroke-linecap="round" stroke-linejoin="round"/>
<path d="M1 22.083V22.9997H17.5" stroke="white" stroke-width="2" stroke-linecap="round" stroke-linejoin="round"/>
</svg>
