<svg width="17" height="17" viewBox="0 0 17 17" fill="none" xmlns="http://www.w3.org/2000/svg">
<path fill-rule="evenodd" clip-rule="evenodd" d="M7.01562 15.5774C7.01562 16.1297 7.46334 16.5774 8.01562 16.5774C8.56791 16.5774 9.01562 16.1297 9.01562 15.5774L9.01562 9.58203L15.0107 9.58203C15.563 9.58203 16.0107 9.13431 16.0107 8.58203C16.0107 8.02974 15.563 7.58203 15.0107 7.58203L9.01562 7.58203L9.01562 1.57812C9.01562 1.02584 8.56791 0.578125 8.01562 0.578125C7.46334 0.578125 7.01562 1.02584 7.01562 1.57812L7.01562 7.58203L1.00781 7.58203C0.455528 7.58203 0.0078125 8.02974 0.0078125 8.58203C0.0078125 9.13431 0.455528 9.58203 1.00781 9.58203L7.01562 9.58203L7.01562 15.5774Z" fill="#424242"/>
</svg>
