<svg width="40" height="40" viewBox="0 0 40 40" fill="none" xmlns="http://www.w3.org/2000/svg">
<rect x="0.5" y="0.5" width="39" height="39" rx="19.5" fill="white"/>
<path fill-rule="evenodd" clip-rule="evenodd" d="M20 20.75C22.1053 20.75 23.75 19.0932 23.75 17.125C23.75 15.1568 22.1053 13.5 20 13.5C17.8947 13.5 16.25 15.1568 16.25 17.125C16.25 19.0932 17.8947 20.75 20 20.75ZM20 22.25C22.8995 22.25 25.25 19.9555 25.25 17.125C25.25 14.2945 22.8995 12 20 12C17.1005 12 14.75 14.2945 14.75 17.125C14.75 19.9555 17.1005 22.25 20 22.25Z" fill="#303030"/>
<path fill-rule="evenodd" clip-rule="evenodd" d="M19.9833 22.25C15.2363 22.25 13.5 25.5976 13.5 27.1833C13.5 27.5975 13.1642 27.9333 12.75 27.9333C12.3358 27.9333 12 27.5975 12 27.1833C12 24.7802 14.397 20.75 19.9833 20.75C22.7644 20.75 24.7095 21.7508 25.9874 23.0724C27.2453 24.3735 27.8249 25.9514 27.9614 27.0944C28.0105 27.5057 27.7169 27.8789 27.3056 27.928C26.8943 27.9772 26.5211 27.6835 26.472 27.2723C26.3703 26.4208 25.9165 25.1571 24.909 24.1151C23.9214 23.0937 22.369 22.25 19.9833 22.25Z" fill="#303030"/>
<rect x="0.5" y="0.5" width="39" height="39" rx="19.5" stroke="#C5C5C5"/>
</svg>
