<svg width="60" height="60" viewBox="0 0 60 60" fill="none" xmlns="http://www.w3.org/2000/svg">
<path d="M25.5677 52.2384L24.7302 52.0935C24.6545 52.0804 24.5788 52.067 24.5032 52.0533L24.1473 54.0214L24.5032 52.0533C19.0362 51.0647 14.0379 48.6283 10.1322 45.0776C6.22832 41.5286 3.59475 37.031 2.53023 32.1659C1.46621 27.3029 2.01008 22.2599 4.10361 17.6652C6.19862 13.0672 9.76112 9.10598 14.3712 6.30564C18.9824 3.50465 24.4214 2.00018 29.999 2C37.4808 2.00795 44.62 4.71513 49.8579 9.47691C55.0898 14.2332 57.9917 20.6389 58 27.2752C57.9995 32.2279 56.3847 37.0875 53.3326 41.2402C50.2778 45.3964 45.915 48.6625 40.7757 50.5977C38.9945 51.2685 37.1495 51.7681 35.2704 52.0934L34.433 52.2384L33.9561 52.9419L30.5951 57.8998C30.5868 57.9033 30.5772 57.9072 30.5663 57.9114C30.4424 57.9585 30.2421 58 30.0003 58C29.7584 58 29.5581 57.9585 29.4343 57.9114C29.4234 57.9072 29.4138 57.9033 29.4055 57.8998L26.0446 52.942L25.5677 52.2384ZM30.6413 57.8765C30.6414 57.8765 30.6396 57.8778 30.6355 57.8802C30.6391 57.8777 30.6411 57.8765 30.6413 57.8765ZM29.3593 57.8765C29.3594 57.8764 29.3614 57.8776 29.3651 57.8802C29.3611 57.8779 29.3592 57.8766 29.3593 57.8765Z" stroke="#C5C5C5" stroke-width="4"/>
<path d="M30.3848 43.4661C29.7001 43.4661 29.0309 43.2816 28.4616 42.9358C27.8924 42.59 27.4487 42.0985 27.1867 41.5235C26.9247 40.9485 26.8562 40.3158 26.9897 39.7054C27.1233 39.0949 27.453 38.5342 27.9371 38.0941C28.4212 37.654 29.038 37.3543 29.7094 37.2329C30.3809 37.1115 31.0769 37.1738 31.7094 37.412C32.3419 37.6501 32.8826 38.0535 33.2629 38.571C33.6433 39.0885 33.8463 39.6969 33.8463 40.3193C33.8463 41.1539 33.4816 41.9543 32.8324 42.5444C32.1833 43.1346 31.3028 43.4661 30.3848 43.4661ZM32.6923 30.6451V32.2435C32.6923 32.7999 32.4492 33.3335 32.0164 33.727C31.5836 34.1204 30.9967 34.3414 30.3846 34.3414C29.7726 34.3414 29.1856 34.1204 28.7528 33.727C28.3201 33.3335 28.0769 32.7999 28.0769 32.2435V28.782C28.077 28.2256 28.3201 27.692 28.7529 27.2986C29.1856 26.9052 29.7726 26.6841 30.3846 26.6841C31.5257 26.6841 32.6411 26.3765 33.5898 25.8002C34.5386 25.2239 35.278 24.4048 35.7147 23.4464C36.1513 22.4881 36.2656 21.4335 36.043 20.4161C35.8204 19.3988 35.2709 18.4642 34.4641 17.7307C33.6572 16.9973 32.6293 16.4977 31.5101 16.2954C30.391 16.093 29.231 16.1969 28.1768 16.5938C27.1226 16.9908 26.2216 17.663 25.5877 18.5255C24.9537 19.388 24.6154 20.402 24.6154 21.4393C24.6154 21.9957 24.3723 22.5294 23.9395 22.9228C23.5067 23.3162 22.9197 23.5373 22.3077 23.5373C21.6957 23.5373 21.1087 23.3162 20.6759 22.9228C20.2431 22.5294 20 21.9957 20 21.4393C20.0003 19.6622 20.5523 17.9213 21.5925 16.4167C22.6328 14.9121 24.1191 13.705 25.8805 12.9342C27.6419 12.1634 29.6068 11.8603 31.5493 12.0596C33.4918 12.2589 35.333 12.9526 36.8611 14.0609C38.3892 15.1692 39.5421 16.6471 40.1873 18.3247C40.8325 20.0022 40.9437 21.8112 40.5083 23.5437C40.0728 25.2762 39.1082 26.8617 37.7256 28.1179C36.3429 29.3742 34.5983 30.2502 32.6923 30.6451Z" fill="#C5C5C5"/>
</svg>
