<svg width="81" height="80" viewBox="0 0 81 80" fill="none" xmlns="http://www.w3.org/2000/svg">
<path d="M40.7422 0C32.8309 0 25.0974 2.34596 18.5194 6.74121C11.9414 11.1365 6.81453 17.3836 3.78702 24.6927C0.759519 32.0017 -0.0326144 40.0444 1.51079 47.8036C3.0542 55.5628 6.86383 62.6902 12.4579 68.2843C18.052 73.8784 25.1793 77.688 32.9386 79.2314C40.6978 80.7748 48.7405 79.9827 56.0495 76.9552C63.3586 73.9277 69.6057 68.8008 74.001 62.2228C78.3962 55.6448 80.7422 47.9112 80.7422 40C80.7302 29.395 76.5121 19.2278 69.0132 11.7289C61.5144 4.23009 51.3472 0.0119705 40.7422 0ZM37.6653 21.5385C37.6653 20.7224 37.9894 19.9398 38.5665 19.3627C39.1435 18.7857 39.9261 18.4615 40.7422 18.4615C41.5582 18.4615 42.3409 18.7857 42.9179 19.3627C43.4949 19.9398 43.8191 20.7224 43.8191 21.5385V43.0769C43.8191 43.893 43.4949 44.6756 42.9179 45.2526C42.3409 45.8297 41.5582 46.1538 40.7422 46.1538C39.9261 46.1538 39.1435 45.8297 38.5665 45.2526C37.9894 44.6756 37.6653 43.893 37.6653 43.0769V21.5385ZM40.7422 61.5384C39.8294 61.5384 38.937 61.2678 38.178 60.7606C37.419 60.2535 36.8275 59.5326 36.4781 58.6893C36.1288 57.8459 36.0374 56.9179 36.2155 56.0226C36.3936 55.1274 36.8332 54.305 37.4786 53.6595C38.1241 53.014 38.9465 52.5745 39.8418 52.3964C40.7371 52.2183 41.6651 52.3097 42.5084 52.659C43.3518 53.0083 44.0726 53.5999 44.5797 54.3589C45.0869 55.1179 45.3576 56.0102 45.3576 56.9231C45.3576 58.1471 44.8713 59.3211 44.0058 60.1866C43.1402 61.0522 41.9663 61.5384 40.7422 61.5384Z" fill="#303030"/>
</svg>
