<svg width="24" height="24" viewBox="0 0 24 24" fill="none" xmlns="http://www.w3.org/2000/svg">
<path d="M4.87623 17.8346C4.4857 18.2251 4.4857 18.8582 4.87623 19.2488C5.26675 19.6393 5.89992 19.6393 6.29044 19.2488L4.87623 17.8346ZM19.2488 6.29044C19.6393 5.89992 19.6393 5.26675 19.2488 4.87623C18.8582 4.4857 18.2251 4.4857 17.8346 4.87623L19.2488 6.29044ZM12 1C5.92772 1 1 5.92772 1 12H3C3 7.03229 7.03229 3 12 3V1ZM1 12C1 18.0723 5.92772 23 12 23V21C7.03228 21 3 16.9677 3 12H1ZM12 23C18.0723 23 23 18.0723 23 12H21C21 16.9677 16.9677 21 12 21V23ZM23 12C23 5.92772 18.0723 1 12 1V3C16.9677 3 21 7.03228 21 12H23ZM6.29044 19.2488L19.2488 6.29044L17.8346 4.87623L4.87623 17.8346L6.29044 19.2488Z" fill="white"/>
</svg>
